<svg width="91" height="60" viewBox="0 0 91 60" fill="none" xmlns="http://www.w3.org/2000/svg">
<path d="M22.5078 12.6687L16.7421 12.6901C15.9153 12.6919 15.1378 13.0338 14.5542 13.6514C13.9707 14.269 13.6509 15.0889 13.6526 15.9589C13.6577 17.7508 15.051 19.2098 16.7591 19.2098L21.5993 19.1973V16.8683L29.0544 22.4696L21.5993 29.0215V26.6174H17.4856C11.8696 26.6174 7.24036 21.8789 7.19613 15.9697C7.17571 13.0607 8.08761 10.6315 9.82974 8.95234C11.514 7.32869 13.889 6.47122 16.6979 6.47122H28.4504C28.59 6.47122 28.7261 6.45869 28.8622 6.439L20.6891 0.372239L18.1134 0.100139C16.2249 -0.100356 14.3144 -0.00726902 12.465 0.443844C5.54077 2.13194 0.996599 8.00894 1 15.8784C1.00511 25.3714 8.53335 33.137 17.5553 33.137H22.3955C27.7512 33.137 32.2069 28.6438 32.2614 23.0085C32.2886 20.2302 31.2695 17.6148 29.4032 15.6564C27.5675 13.7284 25.1193 12.6687 22.5078 12.6687Z" fill="#52B698"/>
<path d="M58.5327 23.3129H40.0039C40.4241 24.7736 41.2135 25.939 42.3704 26.809C43.5273 27.679 44.8339 28.114 46.2919 28.114C47.3994 28.114 48.427 27.9189 49.373 27.5268C50.3189 27.1366 51.0725 26.6013 51.634 25.9229H57.9645C57.25 28.1802 55.7902 30.0903 53.5905 31.6549C51.389 33.2177 49.0259 34 46.5029 34C43.0526 34 40.0873 32.7164 37.6068 30.1494C36.3869 28.8659 35.4682 27.4499 34.8507 25.8996C34.2331 24.3493 33.9252 22.6541 33.9252 20.8103C33.9252 17.0922 35.145 13.9057 37.5847 11.2492C40.0243 8.5926 43.0322 7.26611 46.6066 7.26611C49.9718 7.26611 52.8487 8.5747 55.2407 11.1937C57.6311 13.8126 58.8271 16.9006 58.8271 20.4558C58.8271 20.7512 58.8271 21.0394 58.8271 21.3187C58.7845 21.5693 58.7556 21.7537 58.742 21.8718L58.5327 23.3129ZM39.9205 17.9568H53.0648C52.602 16.5104 51.7752 15.3486 50.5826 14.4714C49.39 13.5942 48.051 13.1539 46.5658 13.1539C45.1078 13.1539 43.74 13.596 42.464 14.4821C41.1897 15.3683 40.3408 16.5265 39.9205 17.9568Z" fill="#52B698"/>
<path d="M59.688 33.1819L70.6971 20.2142L60.9861 8.00903H57.8625L67.5735 20.2142L56.5627 33.1819" fill="#E9A349"/>
<path d="M78.991 20.2142L88.7003 8.00903H84.4045H81.2809L75.6037 14.9691H75.4165L69.7393 8.00903H66.6157H62.3199L72.0292 20.2142L61.0201 33.1819L65.7446 33.2159L68.8512 33.2392L75.4165 25.06H75.6037L82.169 33.2392L85.2755 33.2159L90.0001 33.1819L78.991 20.2142Z" fill="#52B698"/>
<path d="M8.40234 49.4375H8.49023L11.2324 59H13.0869L16.5146 46.3174H14.4668L12.1201 56.249H12.0498L9.36035 46.3174H7.53223L4.85156 56.249H4.78125L2.43457 46.3174H0.386719L3.80566 59H5.66895L8.40234 49.4375ZM21.7213 59.1758C24.3668 59.1758 26.107 57.3564 26.107 54.377C26.107 51.4062 24.358 49.5869 21.7213 49.5869C19.0846 49.5869 17.3355 51.4062 17.3355 54.377C17.3355 57.3564 19.0758 59.1758 21.7213 59.1758ZM21.7213 57.6113C20.2359 57.6113 19.2691 56.4336 19.2691 54.377C19.2691 52.3291 20.2359 51.1514 21.7213 51.1514C23.2066 51.1514 24.1734 52.3291 24.1734 54.377C24.1734 56.4336 23.2154 57.6113 21.7213 57.6113ZM28.4748 59H30.3732V53.4629C30.3732 52.1533 31.1291 51.3359 32.3508 51.3359C32.7199 51.3359 33.0539 51.3799 33.2033 51.4414V49.6748C33.0627 49.6484 32.8254 49.6045 32.5529 49.6045C31.4631 49.6045 30.6369 50.2461 30.3293 51.3271H30.2854V49.7539H28.4748V59ZM37.2674 53.7178H37.2498V46.3174H35.3514V59H37.2498V55.6777L38.0408 54.8955L41.1785 59H43.3846L39.4031 53.7354L43.2352 49.7539H41.0027L37.2674 53.7178ZM45.8227 59H47.7299V51.2568H49.5756V49.7715H47.7035V48.9014C47.7035 48.084 48.0902 47.6709 48.9164 47.6709C49.1713 47.6709 49.4262 47.6885 49.6107 47.7236V46.3174C49.3646 46.2734 48.934 46.2295 48.5473 46.2295C46.6664 46.2295 45.8227 47.0732 45.8227 48.8662V49.7715H44.5482V51.2568H45.8227V59ZM55.5557 59.1758C58.2012 59.1758 59.9414 57.3564 59.9414 54.377C59.9414 51.4062 58.1924 49.5869 55.5557 49.5869C52.9189 49.5869 51.1699 51.4062 51.1699 54.377C51.1699 57.3564 52.9102 59.1758 55.5557 59.1758ZM55.5557 57.6113C54.0703 57.6113 53.1035 56.4336 53.1035 54.377C53.1035 52.3291 54.0703 51.1514 55.5557 51.1514C57.041 51.1514 58.0078 52.3291 58.0078 54.377C58.0078 56.4336 57.0498 57.6113 55.5557 57.6113ZM62.3795 59H64.2779V46.3174H62.3795V59ZM71.1018 59.1758C73.7473 59.1758 75.4875 57.3564 75.4875 54.377C75.4875 51.4062 73.7385 49.5869 71.1018 49.5869C68.465 49.5869 66.716 51.4062 66.716 54.377C66.716 57.3564 68.4563 59.1758 71.1018 59.1758ZM71.1018 57.6113C69.6164 57.6113 68.6496 56.4336 68.6496 54.377C68.6496 52.3291 69.6164 51.1514 71.1018 51.1514C72.5871 51.1514 73.5539 52.3291 73.5539 54.377C73.5539 56.4336 72.5959 57.6113 71.1018 57.6113ZM90.0193 49.7539H88.1385L86.451 57.0312H86.407L84.4734 49.7539H82.6453L80.7205 57.0312H80.6853L78.9978 49.7539H77.0994L79.6395 59H81.5994L83.5242 52.0742H83.5682L85.5105 59H87.4881L90.0193 49.7539Z" fill="#CED4DA"/>
</svg>
