<?xml version="1.0" standalone="no"?>
<!DOCTYPE svg PUBLIC "-//W3C//DTD SVG 20010904//EN"
 "http://www.w3.org/TR/2001/REC-SVG-20010904/DTD/svg10.dtd">
<svg version="1.0" xmlns="http://www.w3.org/2000/svg"
 width="1155.000000pt" height="470.000000pt" viewBox="0 0 1155.000000 470.000000"
 preserveAspectRatio="xMidYMid meet">

<g transform="translate(0.000000,470.000000) scale(0.100000,-0.100000)"
fill="#000000" stroke="none">
<path d="M11290 4683 c-84 -6 -564 -53 -700 -69 -576 -64 -1162 -149 -1680
-244 -2368 -433 -4471 -1179 -6279 -2227 -799 -464 -1566 -1011 -2186 -1562
-174 -154 -435 -401 -435 -412 0 -4 21 -42 46 -84 l47 -75 608 0 c335 0 609 4
609 8 0 12 478 466 655 622 1321 1168 2887 2108 4690 2817 321 126 579 220
970 351 1086 366 2422 677 3570 832 88 12 198 27 245 34 l85 13 -100 0 c-55 0
-120 -2 -145 -4z"/>
<path d="M172 2998 c-5 -7 -22 -37 -37 -67 l-27 -54 24 -22 c12 -12 253 -193
533 -402 281 -208 599 -446 707 -527 l198 -148 52 30 c29 16 127 70 218 121
91 52 270 147 398 213 191 99 231 123 220 133 -11 11 -474 366 -871 668 l-88
67 -658 0 c-515 0 -661 -3 -669 -12z"/>
<path d="M3220 1384 c-124 -97 -291 -230 -372 -297 -139 -114 -147 -123 -130
-138 9 -9 299 -224 644 -478 l626 -461 667 0 666 0 25 55 c13 31 24 60 24 64
0 5 -96 80 -212 167 -117 87 -545 405 -950 706 -406 302 -743 551 -750 553 -7
3 -114 -74 -238 -171z"/>
</g>
</svg>
